# xmcd
#
# Track frame offsets: 
#        150
#        26167
#        54226
#        81313
#        108122
#        132979
#        163282
#        181265
#        209782
#        238623
#        256938
#        273555
#
# Disc length: 3729 seconds
#
# Revision: 2
# Processed by: cddbd v1.5.2PL0 Copyright (c) Steve Scherf et al.
# Submitted via: ExactAudioCopy v0.99pb5
#
DISCID=ac0e8f0c
DTITLE=Rita Marcotulli - Live at Casa del Jazz
DYEAR=2009
DGENRE=Jazz
TTITLE0=Le cinema est le cinema
TTITLE1=Les 400 coups
TTITLE2=Hoping
TTITLE3=Songs of experience
TTITLE4=Escape
TTITLE5=Musique en jeu
TTITLE6=Les enfants s'ennuient le dimanche
TTITLE7=Masse di memoria
TTITLE8=Il richiamo
TTITLE9=Antoine Doinel
TTITLE10=Que reste-t-il de nos amours?
TTITLE11=Fragment (of the third kind)
EXTD=Rita Marcotulli, pianoforte e tastiere - Javer Girotto sax soprano
EXTD=e baritono - \nflauti Luciano Biondini fisarmonica - Aurora Barbat
EXTD=elli arpa celtica - Michel \nBenita contrabbasso - Alfredo Golino b
EXTD=atteria - Gianni Iacobacci - Clara \nGraziano - Roberta Bartoletti o
EXTD=rganetto - Noa, voce (11) - Aldo Romano, voce \n(7) - Raiz, voce (3)
EXTD=Rocco Papaleo, voce recitante (8,12) - Gianni Giacobacci, \nvoce
EXTD=recitante (8) - Stefano Di Battista, sax alto (1) - Fabrizio Bosso
EXTD=, \ntromba (2]\nRegistrato alla "Casa Del Jazz" di Roma nel mese 
EXTD=di agosto 2009\n
EXTT0=
EXTT1=
EXTT2=
EXTT3=
EXTT4=
EXTT5=
EXTT6=
EXTT7=
EXTT8=
EXTT9=
EXTT10=
EXTT11=
PLAYORDER=
